<svg xmlns="http://www.w3.org/2000/svg" width="44.032" height="43.94" viewBox="0 0 44.032 43.94">
  <defs>
    <style>
      .cls-1 {
        fill: #fff;
        fill-rule: evenodd;
      }
    </style>
  </defs>
  <path id="Forma_1" data-name="Forma 1" class="cls-1" d="M689.519,1698.37a0.855,0.855,0,1,1-.866.85A0.858,0.858,0,0,1,689.519,1698.37Zm0.149,4.53a0.869,0.869,0,0,0-.984.73c-0.237,1.58-1.588,2.89-3.615,3.51-2.167.66-5.174,0.44-7.009-1.54a0.872,0.872,0,0,0-1.224-.05,0.85,0.85,0,0,0-.052,1.21,7.622,7.622,0,0,0,4.172,2.26,9.093,9.093,0,0,0,1.813.18,9.5,9.5,0,0,0,2.808-.42c2.682-.81,4.484-2.65,4.821-4.9A0.865,0.865,0,0,0,689.668,1702.9Zm12.042-7.59a10.74,10.74,0,0,0-6.364-3.45,49.049,49.049,0,0,0,6.205-4.8c2.349-2.22,3.136-3.78,2.479-4.9-0.732-1.26-2.844-1.25-6.648.02a67.068,67.068,0,0,0-11.274,5.27c-0.7.4-1.395,0.82-2.074,1.23a4.589,4.589,0,0,1,.94-4.42,3.247,3.247,0,0,0,.485-3.46,3.513,3.513,0,0,0-3.283-1.84h-0.041a22.191,22.191,0,0,0-21.636,19.83,21.913,21.913,0,0,0,5.769,17,22.315,22.315,0,0,0,16.321,7.13,23.809,23.809,0,0,0,9.278-1.79,20.86,20.86,0,0,0,6.833-4.62,20.412,20.412,0,0,0,4.226-6.26,18.05,18.05,0,0,0,1.5-6.79A11.906,11.906,0,0,0,701.71,1695.31Zm-17.575-4.67c0.917-.58,1.872-1.15,2.839-1.7a68.224,68.224,0,0,1,10.516-4.98c3.336-1.17,4.7-1.09,5.021-.94-0.028.2-.278,1.09-2.468,3.09a54.627,54.627,0,0,1-7.517,5.52c-0.955.6-1.948,1.2-2.953,1.77-1.385.79-2.769,1.53-4.127,2.21a13.1,13.1,0,0,0-1.041-2.27,12.971,12.971,0,0,0-1.416-1.97C683.365,1691.12,683.748,1690.88,684.135,1690.64Zm-0.258,5.73a44.974,44.974,0,0,1-6.484,2.54,4.275,4.275,0,0,0-1.308-2.28,44.679,44.679,0,0,1,5.455-4.3,11.569,11.569,0,0,1,1.365,1.87A11.141,11.141,0,0,1,683.877,1696.37Zm18.822,7.07c-0.124,8.54-7.847,17.76-20.11,17.76a20.553,20.553,0,0,1-15.044-6.57,20.192,20.192,0,0,1,14.59-33.95h0.039a1.81,1.81,0,0,1,1.725.86,1.557,1.557,0,0,1-.286,1.66,6.258,6.258,0,0,0-1.071,6.41c-0.464.29-.921,0.59-1.362,0.89h-0.006a46.063,46.063,0,0,0-6.629,5.22,4.36,4.36,0,0,0-3.56.34c-1.8,1.03-4.164,5.84-4.619,6.79a0.852,0.852,0,0,0,.713,1.22c0.478,0.04,1.838.14,3.352,0.14,1.836,0,3.9-.15,4.886-0.71a4.271,4.271,0,0,0,2.066-2.81,45.884,45.884,0,0,0,7.907-3.08c1.685-.82,3.417-1.73,5.15-2.72,0.878-.5,1.747-1.02,2.592-1.55,0,0,.01.01,0.015,0.01C700.268,1693.55,702.768,1698.69,702.7,1703.44Zm-26.953-3.5a2.56,2.56,0,0,1-1.3,2.07c-0.819.47-3.634,0.53-5.945,0.43,1.064-2.04,2.526-4.42,3.346-4.89a2.617,2.617,0,0,1,3.551.94A2.584,2.584,0,0,1,675.746,1699.94Zm-0.089-15.67a3.435,3.435,0,1,0,3.466,3.44A3.455,3.455,0,0,0,675.657,1684.27Zm0,5.15a1.715,1.715,0,1,1,1.733-1.71A1.725,1.725,0,0,1,675.657,1689.42Zm-4.331,17.92a3.435,3.435,0,1,0,3.465,3.44A3.455,3.455,0,0,0,671.326,1707.34Zm0,5.15a1.715,1.715,0,1,1,1.732-1.71A1.725,1.725,0,0,1,671.326,1712.49Zm8.663,0a3.435,3.435,0,1,0,3.466,3.44A3.454,3.454,0,0,0,679.989,1712.49Zm0,5.15a1.715,1.715,0,1,1,1.733-1.71A1.725,1.725,0,0,1,679.989,1717.64Zm10.4-6.86a3.43,3.43,0,1,0,3.465,3.43A3.453,3.453,0,0,0,690.386,1710.78Zm0,5.15a1.72,1.72,0,1,1,1.733-1.72A1.727,1.727,0,0,1,690.386,1715.93Zm6.931-13.74a3.435,3.435,0,1,0,3.466,3.43A3.453,3.453,0,0,0,697.317,1702.19Zm0,5.15a1.715,1.715,0,1,1,1.733-1.72A1.728,1.728,0,0,1,697.317,1707.34Z" transform="translate(-660.406 -1678.97)"/>
</svg>
